<svg xmlns="http://www.w3.org/2000/svg" width="176.19" height="202.046" viewBox="0 0 176.19 202.046">
  <g id="Calling-amico" transform="translate(-72.095 -47.864)">
    <g id="freepik--Shadows--inject-3" transform="translate(72.095 188.246)">
      <path id="Path_239" data-name="Path 239" d="M106.769,344.769l7.7,4.607a3.769,3.769,0,0,0,3.885,0l62.59-37.481a1.338,1.338,0,0,0,0-2.281l-7.72-4.607a3.769,3.769,0,0,0-3.885,0l-62.568,37.5a1.338,1.338,0,0,0,0,2.264Z" transform="translate(-106.143 -304.468)" fill="#e0e0e0"/>
      <path id="Path_240" data-name="Path 240" d="M324.644,352.27c12.932,7.471,13,19.576.155,27.041s-33.751,7.471-46.683,0-13-19.57-.155-27.041S311.712,344.8,324.644,352.27Z" transform="translate(-178.331 -323.247)" fill="#e0e0e0"/>
    </g>
    <g id="freepik--Character--inject-3" transform="translate(159.634 74.461)">
      <path id="Path_252" data-name="Path 252" d="M280.631,109.112a.285.285,0,0,1,.461.266v3.114a1.01,1.01,0,0,1-.461.794.284.284,0,0,1-.461-.261v-3.114A1.021,1.021,0,0,1,280.631,109.112Z" transform="translate(-271.121 -103.728)" fill="#eb0628"/>
      <path id="Path_253" data-name="Path 253" d="M269.961,119.776a.316.316,0,0,1,.355,0l1.748,1.376c.167.133.139.483-.056.783a.871.871,0,0,1-.294.294.311.311,0,0,1-.355,0l-1.748-1.376c-.167-.133-.144-.483.055-.783a.894.894,0,0,1,.294-.294Z" transform="translate(-266.373 -108.476)" fill="#eb0628"/>
      <path id="Path_254" data-name="Path 254" d="M266.242,127.032a.405.405,0,0,1,.205-.033l2.353.205c.222,0,.3.3.172.627a1.038,1.038,0,0,1-.4.494.389.389,0,0,1-.233.061l-2.353-.2c-.216,0-.294-.3-.166-.627a.993.993,0,0,1,.422-.527Z" transform="translate(-264.708 -111.713)" fill="#eb0628"/>
      <path id="Path_255" data-name="Path 255" d="M268.66,140.948c.161-.094.316-.089.4.033a.771.771,0,0,1-.166.821l-2.342,2.914a.826.826,0,0,1-.228.2c-.161.094-.316.089-.405-.033a.783.783,0,0,1,.167-.821l2.342-2.914a.845.845,0,0,1,.233-.2Z" transform="translate(-264.756 -117.892)" fill="#eb0628"/>
      <path id="Path_256" data-name="Path 256" d="M266.987,137.3c.222-.122.416-.056.455.178a.982.982,0,0,1-.372.833l-2.67,2.081-.078.056c-.222.128-.416.061-.455-.178a.966.966,0,0,1,.372-.833l2.664-2.081Z" transform="translate(-263.866 -116.272)" fill="#eb0628"/>
      <path id="Path_257" data-name="Path 257" d="M289.989,107.409a.355.355,0,0,1,.3-.05c.194.078.222.394.061.716l-1.737,3.391a.955.955,0,0,1-.355.394.377.377,0,0,1-.3.05c-.194-.078-.222-.4-.055-.722l1.732-3.386A.922.922,0,0,1,289.989,107.409Z" transform="translate(-274.513 -102.969)" fill="#eb0628"/>
      <path id="Path_258" data-name="Path 258" d="M285.626,106.952a.466.466,0,0,1,.161-.055c.239-.039.361.194.278.522l-.921,3.458a1.01,1.01,0,0,1-.433.6.455.455,0,0,1-.155.061c-.239.039-.366-.194-.278-.522l.916-3.458A1.038,1.038,0,0,1,285.626,106.952Z" transform="translate(-272.936 -102.767)" fill="#eb0628"/>
      <g id="Group_4758" data-name="Group 4758" transform="translate(0 4.125)" opacity="0.2">
        <path id="Path_259" data-name="Path 259" d="M280.631,109.112a.285.285,0,0,1,.461.266v3.114a1.01,1.01,0,0,1-.461.794.284.284,0,0,1-.461-.261v-3.114A1.021,1.021,0,0,1,280.631,109.112Z" transform="translate(-271.121 -107.854)"/>
        <path id="Path_260" data-name="Path 260" d="M269.961,119.776a.316.316,0,0,1,.355,0l1.748,1.376c.167.133.139.483-.056.783a.871.871,0,0,1-.294.294.311.311,0,0,1-.355,0l-1.748-1.376c-.167-.133-.144-.483.055-.783a.894.894,0,0,1,.294-.294Z" transform="translate(-266.373 -112.601)"/>
        <path id="Path_261" data-name="Path 261" d="M266.242,127.032a.405.405,0,0,1,.205-.033l2.353.205c.222,0,.3.3.172.627a1.038,1.038,0,0,1-.4.494.389.389,0,0,1-.233.061l-2.353-.2c-.216,0-.294-.3-.166-.627a.993.993,0,0,1,.422-.527Z" transform="translate(-264.708 -115.838)"/>
        <path id="Path_262" data-name="Path 262" d="M268.66,140.948c.161-.094.316-.089.4.033a.771.771,0,0,1-.166.821l-2.342,2.914a.826.826,0,0,1-.228.2c-.161.094-.316.089-.405-.033a.783.783,0,0,1,.167-.821l2.342-2.914a.845.845,0,0,1,.233-.2Z" transform="translate(-264.756 -122.017)"/>
        <path id="Path_263" data-name="Path 263" d="M266.987,137.3c.222-.122.416-.056.455.178a.982.982,0,0,1-.372.833l-2.67,2.081-.078.056c-.222.128-.416.061-.455-.178a.966.966,0,0,1,.372-.833l2.664-2.081Z" transform="translate(-263.866 -120.397)"/>
        <path id="Path_264" data-name="Path 264" d="M289.989,107.409a.355.355,0,0,1,.3-.05c.194.078.222.394.061.716l-1.737,3.391a.955.955,0,0,1-.355.394.377.377,0,0,1-.3.05c-.194-.078-.222-.4-.055-.722l1.732-3.386A.922.922,0,0,1,289.989,107.409Z" transform="translate(-274.513 -107.094)"/>
        <path id="Path_265" data-name="Path 265" d="M285.626,106.952a.466.466,0,0,1,.161-.055c.239-.039.361.194.278.522l-.921,3.458a1.01,1.01,0,0,1-.433.6.455.455,0,0,1-.155.061c-.239.039-.366-.194-.278-.522l.916-3.458A1.038,1.038,0,0,1,285.626,106.952Z" transform="translate(-272.936 -106.892)"/>
      </g>
      <path id="Path_266" data-name="Path 266" d="M283.389,379.983a6.954,6.954,0,0,0,5.289,1.993,15.712,15.712,0,0,0,5.589-1.449c1.793-.755,4.035-2.864,5.972-2.825a45.753,45.753,0,0,0,5.656-.394,30.926,30.926,0,0,0-.8-7.854l-9.03-.244c-2.437,3.424-7.176,6.272-10.762,7.337a3.208,3.208,0,0,0-2.22,2.431.228.228,0,0,0,0,.061A4.051,4.051,0,0,0,283.389,379.983Z" transform="translate(-272.414 -219.493)" fill="#455a64"/>
      <path id="Path_267" data-name="Path 267" d="M300.19,384.194c-1.937-.039-4.179,2.07-5.972,2.825a15.713,15.713,0,0,1-5.589,1.449,6.954,6.954,0,0,1-5.289-1.993,4.048,4.048,0,0,1-.311-.944.225.225,0,0,1,0-.061,2.975,2.975,0,0,0,0,1.232,4.047,4.047,0,0,0,.311.944,6.932,6.932,0,0,0,5.289,1.992,15.707,15.707,0,0,0,5.589-1.443c1.793-.755,4.035-2.864,5.972-2.825a41.325,41.325,0,0,0,5.55-.333c.044-.411.072-.827.089-1.238A45.748,45.748,0,0,1,300.19,384.194Z" transform="translate(-272.364 -225.985)" fill="#37474f"/>
      <path id="Path_268" data-name="Path 268" d="M346.711,385.69a13.608,13.608,0,0,1-.272,2.808,6.533,6.533,0,0,1-2.5,4.09,7.914,7.914,0,0,1-3.98,1.11,8.641,8.641,0,0,1-3.635-.389,4.135,4.135,0,0,1-2.131-1.782s0,.033,0,.05a3.885,3.885,0,0,0,2.453,2.614,8.576,8.576,0,0,0,3.641.383,7.848,7.848,0,0,0,3.974-1.082,6.5,6.5,0,0,0,2.5-4.1,13.558,13.558,0,0,0,.272-2.8,4.79,4.79,0,0,1,1.471-3.43,8.11,8.11,0,0,0,.638-.677,1.666,1.666,0,0,0,.394-1.227,3.882,3.882,0,0,0-.056-.511c-.327.4-1.11,1.343-1.31,1.532a4.806,4.806,0,0,0-1.46,3.408Z" transform="translate(-295.158 -224.628)" fill="#37474f"/>
      <path id="Path_269" data-name="Path 269" d="M339.745,372a10.546,10.546,0,0,1-.727,5.711,22.07,22.07,0,0,1-2.936,4.951,14.84,14.84,0,0,0-1.543,2.3,4.246,4.246,0,0,0-.433,2.653,4.135,4.135,0,0,0,2.131,1.782,8.641,8.641,0,0,0,3.635.388,7.914,7.914,0,0,0,3.979-1.11,6.533,6.533,0,0,0,2.5-4.091,13.607,13.607,0,0,0,.272-2.808,4.806,4.806,0,0,1,1.465-3.43c.2-.189.982-1.11,1.31-1.532a10.486,10.486,0,0,0-1.349-3.968Z" transform="translate(-295.097 -220.734)" fill="#455a64"/>
      <path id="Path_270" data-name="Path 270" d="M300.66,223l.683,47.765,2.22,33.435c5.55,3.608,9.6.661,9.6.661,2.115-15.84,2.4-25.581,1.249-32.191l1.055-25.775,3.141,26.78,5.328,32.807c5.711,3.8,9.746,0,9.746,0,0-12.144,1.055-25.72-2.22-34.478a206.127,206.127,0,0,0-1.537-48.5Z" transform="translate(-280.238 -154.432)" fill="#37474f"/>
      <path id="Path_271" data-name="Path 271" d="M319.518,246.165l1.166,9.846-.494,12.072-2.142-19.848c-5-1.993-5.617-4.8-5.617-4.8A14.985,14.985,0,0,0,319.518,246.165Z" transform="translate(-285.476 -163.528)" fill="#263238"/>
      <path id="Path_272" data-name="Path 272" d="M296.954,122.944l-1.271-.666h-.078a.716.716,0,0,0-.66.033l-11.372,6.566a1.465,1.465,0,0,0-.733,1.271v5.506a.71.71,0,0,0,.3.588h0a.657.657,0,0,0,.139.072l1.232.655-.061-1,10.84-6.255a1.471,1.471,0,0,0,.738-1.271v-4.8Z" transform="translate(-272.309 -109.584)" fill="#455a64"/>
      <path id="Path_273" data-name="Path 273" d="M297.612,130.861l-11.372,6.566a.738.738,0,0,1-1.11-.633v-5.511a1.482,1.482,0,0,1,.733-1.271l11.406-6.566a.733.733,0,0,1,1.11.638v5.506A1.46,1.46,0,0,1,297.612,130.861Z" transform="translate(-273.328 -110.086)" fill="#455a64"/>
      <path id="Path_274" data-name="Path 274" d="M286.46,131.879a.738.738,0,0,1,.366-.633L298.2,124.68v5.506a.738.738,0,0,1-.366.638l-11.372,6.56Z" transform="translate(-273.92 -110.682)" fill="#eb0628"/>
      <path id="Path_275" data-name="Path 275" d="M292.565,143.959a1.97,1.97,0,0,1,.738-.882A5.128,5.128,0,0,0,295.4,140.5a14.247,14.247,0,0,0,.522-3.5,5.455,5.455,0,0,1,1.2-3.269c-2.02-.816-2.842,1.021-3.574,3.963l-6.766,3.885.094.222a1.665,1.665,0,0,1,0,1.376l-1.97,4a6.882,6.882,0,0,0,6.66.749A33.906,33.906,0,0,1,292.565,143.959Z" transform="translate(-273.225 -114.62)" fill="#ffa8a7"/>
      <path id="Path_276" data-name="Path 276" d="M289.282,162.194c.355-1.437.783-3.33,1.06-5a8.731,8.731,0,0,1-7.6-.9,38.955,38.955,0,0,0-2.154,4.207,9.846,9.846,0,0,0,8.692,1.687Z" transform="translate(-271.308 -124.752)" fill="#e0e0e0"/>
      <path id="Path_277" data-name="Path 277" d="M285.767,163.266s.278-.988.627-2.4a9.846,9.846,0,0,1-8.692-1.7,44.719,44.719,0,0,0-3.5,13.959,11.923,11.923,0,0,0,.205,4.213,4.962,4.962,0,0,0,2.536,3.241c1.793.821,3.941.111,5.55-1,3.058-2.1,5-5.445,6.8-8.675l4.923-17.578C291.3,153.642,288.914,155.279,285.767,163.266Z" transform="translate(-268.42 -123.426)" fill="#f0f0f0"/>
      <path id="Path_278" data-name="Path 278" d="M292.748,171.24c-1.154,4.085-2.958,10.606-2.958,10.606C293.9,177.673,292.748,171.24,292.748,171.24Z" transform="translate(-275.401 -131.4)" opacity="0.1"/>
      <path id="Path_279" data-name="Path 279" d="M303.346,158a12.371,12.371,0,0,0-3.68,3.924c-1.61,2.775-2.081,6.005-2.52,9.169q-.466,3.33-.927,6.66a49.028,49.028,0,0,0,2.931-4.768Z" transform="translate(-278.263 -125.509)" opacity="0.1"/>
      <path id="Path_280" data-name="Path 280" d="M310.968,152.35l-5.251.555c-4.3,3.791-6.521,11.744-5.595,20.536a115.08,115.08,0,0,1,.205,18.127c11.655,8.514,27.435,2.331,29.283.483l-1.493-10.8a7.543,7.543,0,0,1,.588-3.547c1.11-2.559,3.064-7.587,3.33-11.483a20.381,20.381,0,0,0-2.1-10.04l-7.632-3.33Z" transform="translate(-279.907 -122.995)" fill="#f0f0f0"/>
      <path id="Path_281" data-name="Path 281" d="M351.021,189.946a45.546,45.546,0,0,0,3.164-10.046,5.958,5.958,0,0,0-2.675,2.375,19.076,19.076,0,0,0-1.082,11A7.509,7.509,0,0,1,351.021,189.946Z" transform="translate(-302.221 -135.254)" opacity="0.1"/>
      <path id="Path_282" data-name="Path 282" d="M313.744,166.14a56.866,56.866,0,0,0-4.324,20.536l2.159,4.646,3.391-4.44a174.806,174.806,0,0,1,.405-20.419Z" transform="translate(-284.136 -129.131)" fill="#eb0628"/>
      <path id="Path_283" data-name="Path 283" d="M316.837,159.26a15.769,15.769,0,0,0,.189,3.819,3.03,3.03,0,0,0,1.632.3,13.27,13.27,0,0,0,2.62-3.169l-2.62-.949Z" transform="translate(-287.418 -126.069)" fill="#eb0628"/>
      <path id="Path_284" data-name="Path 284" d="M320.15,154.57c2.259.833,4.268,4.856,4.268,4.856,5.939-5.04,6.866-8.187,6.866-8.187a5.9,5.9,0,0,0-3.191-2.52Z" transform="translate(-288.911 -121.379)" fill="#e0e0e0"/>
      <path id="Path_285" data-name="Path 285" d="M317.53,155.255c-1.726.05-3.252,2.453-3.252,2.453-.278-4.207,3.252-7.448,3.252-7.448Z" transform="translate(-286.291 -122.065)" fill="#e0e0e0"/>
      <path id="Path_286" data-name="Path 286" d="M328.231,140.23l-8.081,2.886v2.992a13.232,13.232,0,0,0,5.123-1.859,7.864,7.864,0,0,0,2.958-4.018Z" transform="translate(-288.911 -117.601)" fill="#f28f8f"/>
      <path id="Path_287" data-name="Path 287" d="M328.231,140.1a7.864,7.864,0,0,1-2.958,4.018,13.233,13.233,0,0,1-5.123,1.859v4.684s8.542-3.835,8.542-5.639v-5.09Z" transform="translate(-288.911 -117.468)" fill="#ffa8a7"/>
      <path id="Path_288" data-name="Path 288" d="M303.041,110.238a4.879,4.879,0,0,1-4.44-2.5.672.672,0,0,1,.727-.966,5.3,5.3,0,0,0,1.87,0,8.88,8.88,0,0,1-1.743-6.6.838.838,0,0,1,1.193-.627,16.413,16.413,0,0,0,8.3,1.665c1.526-.105,3.03-.433,4.557-.555a8.448,8.448,0,0,1,4.479.683,4.257,4.257,0,0,1,2.442,3.608,2.1,2.1,0,0,1,1.515-.877,2.337,2.337,0,0,1,1.765.522c-.883.488-1.743.977-2.625,1.46a2.292,2.292,0,0,1,2.492,1.232,6.073,6.073,0,0,1,.483,2.808,21.86,21.86,0,0,1-.172,3.813,7.32,7.32,0,0,1-1.443,3.5,5.55,5.55,0,0,1-2.631,1.782,7.171,7.171,0,0,1-4.263-.139,16.918,16.918,0,0,1-3.885-1.931,60.723,60.723,0,0,1-8.619-6.871Z" transform="translate(-279.289 -99.459)" fill="#263238"/>
      <path id="Path_289" data-name="Path 289" d="M305.985,114.181a29.322,29.322,0,0,0,1.665,15.679,5.59,5.59,0,0,0,2.126,2.953,6.031,6.031,0,0,0,3.8.311,19.248,19.248,0,0,0,6.005-1.665,8.186,8.186,0,0,0,4.157-4.479,3.6,3.6,0,0,0,3.641-1.426,6.811,6.811,0,0,0,1.182-3.98c0-.9-.167-1.959-.977-2.353a2.206,2.206,0,0,0-2.3.555,6.893,6.893,0,0,0-2.22,3.363c-.594-2.187-1.521-4.3-2.115-6.494a3.678,3.678,0,0,0-1.277-2.287c-.916-.588-2.115-.25-3.175,0a20.947,20.947,0,0,1-10.512-.178Z" transform="translate(-282.428 -105.944)" fill="#ffa8a7"/>
      <path id="Path_290" data-name="Path 290" d="M315.764,126.28,313.2,130.6l3.058.572Z" transform="translate(-285.818 -111.394)" fill="#f28f8f"/>
      <path id="Path_291" data-name="Path 291" d="M322.135,137.77l-2.326,1.11a1.526,1.526,0,0,0,1.765.505A1.382,1.382,0,0,0,322.135,137.77Z" transform="translate(-288.76 -116.507)" fill="#f28f8f"/>
      <path id="Path_292" data-name="Path 292" d="M322.135,137.77l-2.326,1.11a1.526,1.526,0,0,0,1.765.505A1.382,1.382,0,0,0,322.135,137.77Z" transform="translate(-288.76 -116.507)" opacity="0.3"/>
      <path id="Path_293" data-name="Path 293" d="M321.55,139.8a1.421,1.421,0,0,0,.81-.072,1.243,1.243,0,0,0,.616-1.227,1.465,1.465,0,0,0-.91.316A1.482,1.482,0,0,0,321.55,139.8Z" transform="translate(-289.534 -116.832)" fill="#f28f8f"/>
      <path id="Path_294" data-name="Path 294" d="M324.394,125.959a.882.882,0,1,1-.966-.783A.879.879,0,0,1,324.394,125.959Z" transform="translate(-290.019 -110.901)" fill="#263238"/>
      <path id="Path_295" data-name="Path 295" d="M311.137,126.785a.877.877,0,1,1-.966-.788A.877.877,0,0,1,311.137,126.785Z" transform="translate(-284.122 -111.266)" fill="#263238"/>
      <path id="Path_296" data-name="Path 296" d="M308.833,121.178l-1.8,1.532a1.249,1.249,0,0,1,.239-1.4A1.476,1.476,0,0,1,308.833,121.178Z" transform="translate(-283.023 -109.05)" fill="#263238"/>
      <path id="Path_297" data-name="Path 297" d="M323.83,119.5c.688.383,1.376.766,2.07,1.143a1.254,1.254,0,0,0-.516-1.332,1.5,1.5,0,0,0-1.554.189Z" transform="translate(-290.548 -108.233)" fill="#263238"/>
      <path id="Path_298" data-name="Path 298" d="M386.12,185.309l2.775-1.376a4.951,4.951,0,0,0,2.081-1.943l.871-1.493a6.106,6.106,0,0,1,2.553-2.375,20.784,20.784,0,0,0,4.44-2.942h0a2.314,2.314,0,0,1-.355,2.9,16.649,16.649,0,0,1-1.821,1.449l1.338.339a4.756,4.756,0,0,0,2.914-.178l3.818-1.482a.666.666,0,0,1,.894.733,15.121,15.121,0,0,1-1.893,4.79,5.706,5.706,0,0,1-3.885,2.725c-1.948.366-3.835.655-4.906.8a5.938,5.938,0,0,0-1.765.555l-4.1,2.037Z" transform="translate(-318.266 -133.153)" fill="#ffa8a7"/>
      <path id="Path_299" data-name="Path 299" d="M368.565,182.5a6.937,6.937,0,0,1-.488-3.63l-5.25,2.486a109.513,109.513,0,0,1-2.22-11.589c-.622-5.267-.483-8.808-7.26-10.545L352.63,173.1s.833,16.928,5.689,18.8c4.018,1.549,6.855-2.276,12.988-6.238A6.932,6.932,0,0,1,368.565,182.5Z" transform="translate(-303.364 -126.052)" fill="#f0f0f0"/>
      <path id="Path_300" data-name="Path 300" d="M364.655,201.274a6.521,6.521,0,0,1,3.513-3.469s-.155-.616-.383-1.615C366.731,196.712,364.133,198.3,364.655,201.274Z" transform="translate(-308.684 -142.502)" opacity="0.1"/>
      <path id="Path_301" data-name="Path 301" d="M385.1,190.6l-4.7,2.22a6.827,6.827,0,0,0,3.252,6.793,43.036,43.036,0,0,1,4.285-2.437S385.448,195.179,385.1,190.6Z" transform="translate(-315.696 -140.015)" fill="#e0e0e0"/>
    </g>
    <g id="freepik--speech-bubble--inject-3" transform="translate(212.816 54.756)">
      <path id="Path_302" data-name="Path 302" d="M395.137,66.444a.705.705,0,0,0-.361-.616h0l-3.208-1.782h-.028a.694.694,0,0,0-.688,0L368.917,76.712a2.159,2.159,0,0,0-1.071,1.859v8.153l-7.593,7.854c-.677.7-.749,1.765-.222,1.931l3.025,1.665a.472.472,0,0,0,.416.133l4.407-.555v5.983a.694.694,0,0,0,.35.611h0l3.186,1.771h.078a.7.7,0,0,0,.655-.028l21.935-12.666a2.131,2.131,0,0,0,1.071-1.859ZM371.626,78.9l-.072.083Zm-.205.266-.055.078Zm-.305.716a.553.553,0,0,0,0,.094.56.56,0,0,1,0-.094Zm.672-1.11a.826.826,0,0,1,.078-.067.821.821,0,0,0-.078.039Z" transform="translate(-359.684 -63.955)" fill="#d7221f"/>
      <path id="Path_303" data-name="Path 303" d="M399.962,82.222a.827.827,0,0,0-.255.2.7.7,0,0,0-.128.228,11.342,11.342,0,0,0-.611,1.487c-.183.45-.355.9-.511,1.354a1.105,1.105,0,0,0-.094.255,1.664,1.664,0,0,0-.122.339c-.1.255-.2.505-.294.76-.039.072-.072.139-.105.211a4.259,4.259,0,0,0-.244.655.6.6,0,0,0,.067.594,1.9,1.9,0,0,0,.855.466l.083.028.266.072.461.228.089.055c.028.039.061.072.089.105a.556.556,0,0,1,.072.133.5.5,0,0,1,0,.228c-.028.111-.056.228-.078.339s-.139.377-.205.555l-.1.244-.344.81c-.117.261-.2.477-.283.694a4.028,4.028,0,0,0-.211.477l-.117.239c-.094.2-.194.4-.289.6l-.083.178-.311.555-.117.222-.361.633-.094.161-.355.677-.111.167-.833,1.21-.333.45-.094.128-1.016,1.288-.389.366a1.009,1.009,0,0,1-.261.222.394.394,0,0,1-.416,0l-.25-.128c0-.039-.033-.044-.061-.05a7.612,7.612,0,0,0-1.11-.81.461.461,0,0,0-.494,0,.832.832,0,0,0-.128.094,2.132,2.132,0,0,0-.427.483.222.222,0,0,0-.094.117c-.305.427-.644.81-.96,1.221s-.583.683-.866,1.038c-.161.183-.316.372-.466.555s-.339.416-.5.644a1.538,1.538,0,0,0-.172.239.832.832,0,0,0-.2.683,2.762,2.762,0,0,0,.039.444,1.931,1.931,0,0,0,.117.555,1.208,1.208,0,0,0,.1.339.911.911,0,0,0,.056.1.177.177,0,0,0,0,.078.507.507,0,0,0,.061.089.3.3,0,0,0,.161.183.5.5,0,0,0,.2.161l.139.056h.094l.117.044h.056a.455.455,0,0,0,.194,0,.1.1,0,0,0,.094,0,.516.516,0,0,0,.244,0,.622.622,0,0,0,.266,0,.883.883,0,0,0,.266,0h.161a1.779,1.779,0,0,0,.372-.078h.061l.133-.033a.227.227,0,0,0,.094-.039l.139-.05a2.628,2.628,0,0,0,.405-.155l.111-.056.089-.05a2.183,2.183,0,0,0,.228-.144,2.908,2.908,0,0,0,.261-.172,3.553,3.553,0,0,0,.289-.216q.122-.083.25-.183l.1-.089.05-.044.139-.117a5.457,5.457,0,0,0,.411-.394,2.444,2.444,0,0,0,.3-.289.276.276,0,0,0,.083-.094,5.386,5.386,0,0,0,.555-.555,4.986,4.986,0,0,0,.422-.416,2.854,2.854,0,0,0,.311-.322l.172-.178a.466.466,0,0,0,.128-.144.145.145,0,0,0,.061-.067l.094-.089a2.218,2.218,0,0,0,.144-.178,3.826,3.826,0,0,0,.283-.316l.089-.111.089-.111a6.78,6.78,0,0,0,.494-.611,1.27,1.27,0,0,0,.211-.272,3.127,3.127,0,0,0,.283-.372,5.43,5.43,0,0,0,.394-.555c.078-.1.111-.15.15-.194l.1-.144c.072-.1.133-.2.2-.305l.128-.172a2.016,2.016,0,0,0,.111-.183,1.9,1.9,0,0,0,.216-.333,4.059,4.059,0,0,0,.289-.444,1.1,1.1,0,0,0,.089-.133.409.409,0,0,0,.039-.067l.039-.072.094-.133c.089-.139.172-.278.25-.427l.111-.183.35-.6a.7.7,0,0,0,.117-.194c.089-.144.172-.289.255-.444,0-.05.05-.1.078-.15a1.113,1.113,0,0,0,.117-.216l.3-.555c.05-.105.105-.205.155-.311a2.675,2.675,0,0,0,.216-.438c.239-.438.45-.883.644-1.338l.089-.205a3.472,3.472,0,0,0,.211-.494,16.408,16.408,0,0,0,.605-1.56l.05-.133a8.33,8.33,0,0,0,.294-.916c.122-.377.222-.749.316-1.11.033-.122.067-.244.094-.372a.178.178,0,0,0,.033-.122.8.8,0,0,0,0-.089l.044-.167a10.931,10.931,0,0,0,.322-1.376v-.072a.251.251,0,0,0,0-.122v-.2a1.169,1.169,0,0,1,0-.139,3.17,3.17,0,0,0,.05-.594v-.244a.349.349,0,0,0,0-.172v-.094a1.608,1.608,0,0,0-.089-.511,2.67,2.67,0,0,0-.233-.71,2.742,2.742,0,0,0-.6-.977.644.644,0,0,0-.283-.233s-.028-.044-.061-.039a.494.494,0,0,0-.322-.1,2.47,2.47,0,0,0-1.021.178l-.117.05a1.256,1.256,0,0,0-.289.111l-.055.033C400.117,82.134,400.034,82.167,399.962,82.222Z" transform="translate(-372.036 -71.841)" fill="#fff"/>
      <path id="Path_304" data-name="Path 304" d="M377.747,132.363a.7.7,0,0,0,.339.6L374.9,131.2h0a.694.694,0,0,1-.35-.611V124.6l3.2-.394Z" transform="translate(-366.299 -90.767)" opacity="0.1"/>
      <path id="Path_305" data-name="Path 305" d="M375.613,76.712l21.94-12.666a.694.694,0,0,1,.688,0h.028l3.208,1.782h0a.722.722,0,0,0-.71,0l-21.94,12.666a2.148,2.148,0,0,0-.91,1.027l-3.186-1.837A2.132,2.132,0,0,1,375.613,76.712Z" transform="translate(-366.379 -63.955)" fill="#fff" opacity="0.2"/>
      <path id="Path_306" data-name="Path 306" d="M374.43,97.76V89.607a2.126,2.126,0,0,1,.189-.877l3.164,1.815a2.218,2.218,0,0,0-.161.827v8.153Z" transform="translate(-366.246 -74.98)" fill="#fff" opacity="0.1"/>
      <path id="Path_307" data-name="Path 307" d="M360.293,112.842,367.886,105l3.214,1.787h0l-7.593,7.848c-.588.611-.721,1.482-.411,1.82l-3.025-1.665C359.544,114.607,359.616,113.547,360.293,112.842Z" transform="translate(-359.702 -82.219)" fill="#fff" opacity="0.05"/>
    </g>
    <g id="freepik--Device--inject-3" transform="translate(75.712 47.864)">
      <path id="Path_308" data-name="Path 308" d="M180.518,56.134h0c-.422-1.6-3.413-4.646-6.388-4.584a2.414,2.414,0,0,0-.838.183L115.475,87.481a5.828,5.828,0,0,0-2.22,2.586,6.422,6.422,0,0,0-.555,2.642V228.657c0,3.463,3.674,6.766,7.126,5.178h0a1.951,1.951,0,0,0,.222-.1l57.822-35.816a6.105,6.105,0,0,0,2.775-5.223V56.794A1.554,1.554,0,0,0,180.518,56.134Z" transform="translate(-112.678 -51.543)" fill="#37474f"/>
      <path id="Path_309" data-name="Path 309" d="M127.2,122.743a3.058,3.058,0,0,1,1.4-2.614l53.687-33.2a1.388,1.388,0,0,1,2.065,1.3V197.859a3.053,3.053,0,0,1-1.4,2.609l-53.687,33.257a1.388,1.388,0,0,1-2.065-1.3Z" transform="translate(-119.127 -67.206)" fill="#d7221f"/>
      <path id="Path_310" data-name="Path 310" d="M112.66,123.614V259.561c0,3.463,3.674,6.766,7.126,5.178h0a1.4,1.4,0,0,1-1.848-1.4V127.372a6.382,6.382,0,0,1,.938-3.33L113.237,121A6.422,6.422,0,0,0,112.66,123.614Z" transform="translate(-112.66 -82.447)" fill="#263238"/>
      <path id="Path_311" data-name="Path 311" d="M174.58,51.539a2.415,2.415,0,0,0-.838.183L115.92,87.477a5.828,5.828,0,0,0-2.22,2.586l5.661,3.075a5.7,5.7,0,0,1,1.859-1.9L179.043,55.48a1.327,1.327,0,0,1,1.92.649h0C180.547,54.525,177.555,51.478,174.58,51.539Z" transform="translate(-113.123 -51.538)" fill="#455a64"/>
      <path id="Path_312" data-name="Path 312" d="M181.842,98.991c.411-.255.744-.055.744.45a1.809,1.809,0,0,1-.738,1.393L170.5,107.955c-.405.255-.733.039-.733-.466a1.782,1.782,0,0,1,.727-1.376Z" transform="translate(-138.073 -72.604)" fill="#263238"/>
      <path id="Path_313" data-name="Path 313" d="M165.244,115.112c.405-.255.733-.05.733.455a1.793,1.793,0,0,1-.733,1.388c-.405.255-.738.05-.744-.461A1.8,1.8,0,0,1,165.244,115.112Z" transform="translate(-135.728 -79.778)" fill="#263238"/>
      <path id="Path_314" data-name="Path 314" d="M177.736,97.043c.81-.511,1.465-.105,1.465.91a3.6,3.6,0,0,1-1.454,2.775c-.816.505-1.487.089-1.487-.921A3.58,3.58,0,0,1,177.736,97.043Z" transform="translate(-140.961 -71.689)" fill="#263238"/>
      <path id="Path_315" data-name="Path 315" d="M176.518,327.451c1.665-1.038,2.986-.211,2.992,1.854a7.323,7.323,0,0,1-2.975,5.639c-1.654,1.038-3.019.189-3.025-1.876A7.31,7.31,0,0,1,176.518,327.451Z" transform="translate(-139.737 -174.114)" fill="#263238"/>
      <path id="Path_316" data-name="Path 316" d="M173.529,189.274a1.5,1.5,0,0,0-.383.316,1.11,1.11,0,0,0-.194.361,18.275,18.275,0,0,0-.932,2.348c-.277.7-.555,1.415-.772,2.126a1.666,1.666,0,0,0-.144.405,2.827,2.827,0,0,0-.189.555l-.45,1.188c-.05.117-.105.228-.155.339a6.745,6.745,0,0,0-.366,1.032.988.988,0,0,0,.094.932,2.986,2.986,0,0,0,1.3.738l.133.039c.133.044.266.078.4.117l.7.355.133.094a2.014,2.014,0,0,1,.139.167.583.583,0,0,1,.105.2.772.772,0,0,1,0,.361l-.117.555c-.1.3-.205.6-.311.894l-.15.389c-.155.416-.316.838-.477,1.254s-.305.755-.433,1.11a7.333,7.333,0,0,0-.322.744c-.055.128-.117.255-.172.377-.15.316-.294.633-.438.949l-.133.283-.466.921c-.056.117-.117.233-.178.35l-.555,1c-.044.083-.094.167-.144.25-.2.339-.4.683-.6,1.021l-.167.261c-.422.638-.844,1.277-1.271,1.915l-.5.7-.139.194-1.548,2.026-.522.594a1.663,1.663,0,0,1-.394.35.6.6,0,0,1-.633.039l-.383-.211c0-.056-.05-.067-.089-.072a11.452,11.452,0,0,0-1.715-1.277.688.688,0,0,0-.749,0,1.347,1.347,0,0,0-.194.144,3.829,3.829,0,0,0-.655.76.422.422,0,0,0-.133.194c-.466.672-.977,1.271-1.46,1.915-.45.527-.894,1.071-1.321,1.637-.244.289-.477.583-.7.9a11.619,11.619,0,0,0-.76,1,2.026,2.026,0,0,0-.261.383,1.338,1.338,0,0,0-.305,1.077,3.481,3.481,0,0,0,.055.694,3.118,3.118,0,0,0,.178.827,1.86,1.86,0,0,0,.155.555,1.357,1.357,0,0,0,.078.155.394.394,0,0,0,.028.122.649.649,0,0,0,.094.144.494.494,0,0,0,.244.289.755.755,0,0,0,.3.25,1.775,1.775,0,0,0,.216.089l.144.039a.993.993,0,0,0,.178.072h.083a.861.861,0,0,0,.294,0,.133.133,0,0,0,.139,0,.762.762,0,0,0,.372,0,1.111,1.111,0,0,0,.405,0,1.322,1.322,0,0,0,.411-.039h.244a3.17,3.17,0,0,0,.555-.128h.083a1.319,1.319,0,0,0,.211-.05.477.477,0,0,0,.133-.061c.161-.05.189-.067.222-.078a4.6,4.6,0,0,0,.6-.244l.178-.089.128-.078a2.683,2.683,0,0,0,.344-.233l.405-.266a3.47,3.47,0,0,0,.427-.35,3.637,3.637,0,0,0,.388-.283c.05-.039.1-.089.15-.133l.072-.078.211-.183c.211-.194.422-.394.622-.616a3.61,3.61,0,0,0,.461-.461.35.35,0,0,0,.122-.144,9.527,9.527,0,0,0,.816-.844,9.048,9.048,0,0,0,.638-.661,4.127,4.127,0,0,0,.472-.505l.255-.283a.865.865,0,0,0,.2-.222.271.271,0,0,0,.089-.105,1.833,1.833,0,0,0,.144-.15,2.156,2.156,0,0,0,.222-.272,6.362,6.362,0,0,0,.433-.5l.133-.178.139-.167c.255-.316.511-.622.744-.971a2.062,2.062,0,0,0,.322-.422,4.552,4.552,0,0,0,.427-.588,9.434,9.434,0,0,0,.6-.855c.117-.161.172-.233.222-.311s.111-.15.161-.228.2-.311.294-.472l.194-.272a3.182,3.182,0,0,0,.178-.294,3.333,3.333,0,0,0,.327-.522,6.473,6.473,0,0,0,.433-.7,1.027,1.027,0,0,0,.139-.205l.061-.105a1.092,1.092,0,0,0,.056-.117c.05-.067.094-.139.139-.211a6.594,6.594,0,0,0,.383-.666l.172-.289.555-.955a1.3,1.3,0,0,0,.172-.311c.139-.222.266-.455.389-.694l.117-.239a2.3,2.3,0,0,0,.178-.339l.455-.866c.078-.167.161-.327.239-.488a4.9,4.9,0,0,0,.333-.688c.361-.694.677-1.4.971-2.109l.133-.322a6.388,6.388,0,0,0,.327-.788c.344-.81.655-1.632.916-2.453a.581.581,0,0,1,.078-.205,11.985,11.985,0,0,0,.438-1.449c.194-.594.344-1.182.488-1.765.044-.2.094-.394.144-.588a.394.394,0,0,0,.05-.2.6.6,0,0,1,.039-.133l.067-.261a17.133,17.133,0,0,0,.488-2.176v-.111a.339.339,0,0,0,0-.189v-.117a.539.539,0,0,1,.028-.205v-.211a5,5,0,0,0,.078-.932v-.389a.716.716,0,0,0,0-.272,1.252,1.252,0,0,1,0-.15,2.736,2.736,0,0,0-.139-.8,4.052,4.052,0,0,0-.355-1.11,4.4,4.4,0,0,0-.9-1.543.971.971,0,0,0-.433-.361.071.071,0,0,0-.094-.061.738.738,0,0,0-.488-.161,3.553,3.553,0,0,0-1.549.283l-.178.072a2.32,2.32,0,0,0-.438.178l-.083.056A.842.842,0,0,0,173.529,189.274Z" transform="translate(-131.292 -112.503)" fill="#fff"/>
    </g>
  </g>
</svg>
